<svg width="19" height="18" viewBox="0 0 19 18" fill="none" xmlns="http://www.w3.org/2000/svg">
<path d="M13.2926 11.9698L13.713 11.5518L12.7367 10.57L12.3164 10.988L13.2926 11.9698ZM15.1248 11.3767L16.8883 12.3354L17.5495 11.119L15.7861 10.1604L15.1248 11.3767ZM17.2277 14.2406L15.9165 15.5444L16.8927 16.5262L18.2039 15.2224L17.2277 14.2406ZM15.1176 15.9642C13.7793 16.0889 10.3169 15.9777 6.56815 12.2503L5.59194 13.2321C9.68278 17.2997 13.5763 17.4983 15.246 17.3427L15.1176 15.9642ZM6.56815 12.2503C2.99483 8.69722 2.40291 5.70883 2.32923 4.41237L0.946945 4.49093C1.03967 6.12266 1.77261 9.43443 5.59194 13.2321L6.56815 12.2503ZM7.83759 6.54578L8.10231 6.28255L7.12613 5.30077L6.8614 5.564L7.83759 6.54578ZM8.31303 2.92721L7.14916 1.37249L6.04082 2.20222L7.20468 3.75695L8.31303 2.92721ZM3.23465 1.0341L1.7859 2.47463L2.76211 3.45642L4.21087 2.01589L3.23465 1.0341ZM7.3495 6.05489C6.8614 5.564 6.86074 5.56465 6.86007 5.56532C6.85985 5.56554 6.85919 5.56621 6.85874 5.56666C6.85783 5.56758 6.85691 5.5685 6.85597 5.56945C6.8541 5.57136 6.85216 5.57335 6.85017 5.57541C6.84617 5.57956 6.84195 5.58404 6.8375 5.58888C6.82859 5.59854 6.81881 5.6096 6.80835 5.62209C6.78742 5.64706 6.76371 5.6778 6.73879 5.71458C6.68883 5.78832 6.63439 5.88582 6.58819 6.00843C6.49392 6.25862 6.44339 6.58842 6.50674 6.9968C6.63065 7.79547 7.18068 8.85044 8.58966 10.2514L9.56583 9.26958C8.24731 7.95852 7.93321 7.16067 7.87488 6.78455C7.84709 6.60555 7.87589 6.51745 7.88383 6.49659C7.88863 6.48368 7.89094 6.48236 7.88503 6.49118C7.88208 6.49549 7.87718 6.50224 7.86952 6.51133C7.86574 6.51588 7.86122 6.52103 7.85596 6.52677C7.85328 6.52964 7.85051 6.53266 7.84737 6.53582C7.84589 6.53741 7.84433 6.53903 7.84266 6.54069C7.84183 6.54152 7.841 6.54236 7.84017 6.54321C7.8398 6.54363 7.83916 6.54428 7.83888 6.54449C7.83823 6.54514 7.83759 6.54578 7.3495 6.05489ZM8.58966 10.2514C9.99909 11.6528 11.059 12.1982 11.859 12.321C12.2678 12.3836 12.5974 12.3336 12.8474 12.2405C12.97 12.1948 13.0676 12.141 13.1415 12.0915C13.1784 12.0668 13.2092 12.0432 13.2342 12.0225C13.2468 12.0121 13.2579 12.0024 13.2676 11.9936C13.2725 11.9891 13.277 11.985 13.2811 11.981C13.2833 11.979 13.2852 11.977 13.2871 11.9752C13.2881 11.9743 13.289 11.9734 13.2899 11.9724C13.2904 11.972 13.2911 11.9713 13.2913 11.9711C13.2919 11.9705 13.2926 11.9698 12.8045 11.4789C12.3164 10.988 12.3171 10.9874 12.3177 10.9867C12.3179 10.9866 12.3185 10.9859 12.319 10.9855C12.3198 10.9846 12.3207 10.9838 12.3215 10.983C12.3232 10.9814 12.3248 10.9798 12.3264 10.9783C12.3296 10.9752 12.3326 10.9724 12.3355 10.9698C12.3412 10.9646 12.3464 10.9601 12.351 10.9564C12.3601 10.9488 12.3668 10.944 12.371 10.9411C12.3795 10.9354 12.3778 10.938 12.3641 10.9431C12.3415 10.9515 12.251 10.9804 12.0689 10.9524C11.6875 10.894 10.884 10.5802 9.56583 9.26958L8.58966 10.2514ZM7.14916 1.37249C6.20833 0.115731 4.35826 -0.0831312 3.23465 1.0341L4.21087 2.01589C4.70161 1.52792 5.57319 1.57759 6.04082 2.20222L7.14916 1.37249ZM2.32923 4.41237C2.31107 4.09291 2.45759 3.7592 2.76211 3.45642L1.7859 2.47463C1.28994 2.96777 0.900046 3.66584 0.946945 4.49093L2.32923 4.41237ZM15.9165 15.5444C15.6629 15.7966 15.391 15.9387 15.1176 15.9642L15.246 17.3427C15.9241 17.2795 16.4796 16.9369 16.8927 16.5262L15.9165 15.5444ZM8.10231 6.28255C9.01101 5.379 9.07858 3.94981 8.31303 2.92721L7.20468 3.75695C7.57711 4.25444 7.52173 4.90741 7.12613 5.30077L8.10231 6.28255ZM16.8883 12.3354C17.6431 12.7457 17.7607 13.7106 17.2277 14.2406L18.2039 15.2224C19.441 13.9923 19.0596 11.9398 17.5495 11.119L16.8883 12.3354ZM13.713 11.5518C14.0674 11.1994 14.638 11.1121 15.1248 11.3767L15.7861 10.1604C14.7859 9.61663 13.5447 9.7668 12.7367 10.57L13.713 11.5518Z" fill="white"/>
</svg>
